<svg width="63" height="56" viewBox="0 0 63 56" fill="none" xmlns="http://www.w3.org/2000/svg">
<path d="M55.2077 3.04071C52.2377 0.957856 48.8563 0 45.4877 0C40.3384 0 35.1955 2.24357 31.4991 6.15857C27.8027 2.24357 22.6598 0 17.5106 0C14.1356 0 10.7606 0.964285 7.79055 3.04071C-0.470158 8.82642 -2.4823 20.2178 3.30341 28.4786C3.30341 28.4786 5.57913 31.3714 7.09627 33.0171C8.33698 34.3671 25.662 51.0043 30.3355 55.4078C30.3355 55.4078 30.8884 55.9414 31.5055 55.9414C32.1677 55.9414 32.6627 55.4078 32.6627 55.4078C37.3363 50.9978 54.6677 34.3671 55.9084 33.0171C57.4191 31.365 59.6948 28.4786 59.6948 28.4786C65.4805 20.2114 63.4748 8.82642 55.2077 3.04071ZM56.802 26.3314C56.4291 26.8007 54.5198 29.205 53.2534 30.5807C52.212 31.7121 35.5105 47.7064 32.1098 50.9657C31.962 51.1521 31.7305 51.2485 31.4734 51.2485C31.3448 51.2485 31.2098 51.21 31.0877 51.1586C28.2205 48.4136 10.8184 31.7443 9.74484 30.5807C8.47841 29.1986 6.56913 26.8007 6.19627 26.3314C3.99127 23.1364 3.14913 19.2793 3.82413 15.4543C4.50555 11.5971 6.64627 8.235 9.85412 5.99143C12.0913 4.42928 14.7334 3.6 17.5106 3.6C21.7213 3.6 25.8677 5.43214 28.8827 8.62714L31.4991 11.3979L34.1156 8.62714C37.1305 5.43214 41.277 3.6 45.4877 3.6C48.2584 3.6 50.907 4.42928 53.1441 5.99143C56.352 8.235 58.4927 11.5971 59.1741 15.4543C59.8491 19.2793 59.007 23.1364 56.802 26.3314Z" fill="#D6E800"/>
</svg>
